<?xml version="1.0" standalone="no"?>
<!DOCTYPE svg PUBLIC "-//W3C//DTD SVG 20010904//EN"
 "http://www.w3.org/TR/2001/REC-SVG-20010904/DTD/svg10.dtd">
<svg version="1.0" xmlns="http://www.w3.org/2000/svg"
 width="16.000000pt" height="16.000000pt" viewBox="0 0 16.000000 16.000000"
 preserveAspectRatio="xMidYMid meet">
<metadata>
Created by potrace 1.11, written by Peter Selinger 2001-2013
</metadata>
<g transform="translate(0.000000,16.000000) scale(0.000757,-0.000757)"
fill="#000000" stroke="none">
<path d="M11100 21130 c-592 -20 -1248 -103 -1860 -236 -3404 -742 -6251
-3153 -7549 -6392 -374 -931 -609 -1898 -706 -2902 -14 -140 -25 -258 -25
-262 0 -4 -26 -16 -57 -28 -235 -87 -427 -307 -488 -555 -25 -103 -23 -278 5
-378 69 -250 225 -432 458 -533 40 -17 75 -34 77 -36 3 -2 16 -123 30 -269
303 -3127 1983 -5945 4605 -7723 1660 -1125 3621 -1755 5625 -1805 3222 -80
6233 1260 8325 3708 178 209 183 213 214 206 103 -21 161 -26 251 -20 451 31
780 423 733 875 -33 316 -247 575 -558 675 -75 24 -101 28 -225 28 -125 1
-149 -2 -228 -27 -211 -65 -381 -204 -479 -392 -127 -242 -118 -557 21 -781
l30 -48 -23 -25 c-12 -14 -92 -106 -176 -205 -572 -670 -1331 -1338 -2080
-1831 -1850 -1216 -4043 -1785 -6255 -1624 -2675 196 -5157 1456 -6912 3510
-1230 1439 -2027 3197 -2297 5065 -31 212 -76 617 -76 682 0 18 12 29 58 51
215 104 365 294 427 541 35 140 15 350 -48 492 -76 173 -229 329 -395 403 -51
23 -49 -2 -18 311 333 3270 2275 6188 5181 7783 1118 614 2351 1009 3620 1161
463 56 648 66 1210 65 471 -1 534 -3 820 -28 2102 -186 4003 -967 5600 -2301
556 -465 1030 -958 1566 -1631 242 -303 280 -354 316 -427 109 -218 102 -475
-19 -680 -128 -219 -350 -359 -638 -402 -158 -23 -284 13 -465 135 -138 93
-256 209 -342 337 -101 148 -155 218 -243 313 -38 41 -147 165 -243 275 -279
319 -650 677 -992 956 -1738 1417 -3943 2086 -6180 1874 -690 -65 -1388 -220
-2040 -452 -320 -114 -581 -225 -927 -395 l-286 -141 -49 35 c-69 51 -160 94
-250 120 -64 18 -103 22 -213 22 -117 -1 -147 -4 -220 -27 -138 -42 -231 -99
-335 -202 -102 -103 -159 -196 -199 -329 -32 -105 -42 -247 -26 -346 23 -131
36 -109 -165 -280 -1467 -1251 -2454 -2927 -2825 -4795 -419 -2114 -33 -4276
1092 -6108 943 -1536 2355 -2746 3993 -3422 77 -32 144 -61 148 -65 5 -4 13
-41 18 -81 39 -315 250 -566 559 -664 74 -24 103 -27 220 -28 181 -2 293 29
440 122 55 35 167 139 209 196 l22 29 222 -37 c521 -87 842 -112 1437 -111
420 1 492 4 740 27 1871 179 3585 932 4963 2182 367 332 679 671 1015 1100 95
121 195 247 223 280 313 372 376 950 154 1406 -189 388 -554 657 -976 719
-118 17 -348 8 -454 -19 -237 -59 -481 -203 -671 -397 -38 -40 -132 -157 -207
-261 -75 -103 -199 -262 -274 -353 -170 -204 -497 -532 -703 -706 -752 -634
-1625 -1065 -2580 -1273 -698 -152 -1435 -174 -2144 -66 -1504 230 -2877 1044
-3809 2259 -59 76 -107 144 -107 150 0 6 12 29 26 50 36 53 79 150 100 227 13
47 18 100 17 199 0 118 -3 146 -27 221 -43 139 -98 231 -201 334 -146 146
-302 218 -509 232 l-109 8 -89 255 c-261 751 -370 1595 -307 2395 83 1059 466
2103 1089 2971 791 1099 1921 1893 3220 2263 337 96 748 169 1140 203 186 16
722 16 910 0 1280 -110 2426 -585 3400 -1411 69 -58 214 -194 322 -301 l198
-195 -39 -79 c-60 -121 -76 -197 -75 -356 2 -117 5 -146 29 -220 83 -258 277
-451 535 -531 64 -20 97 -23 225 -23 136 0 158 2 233 27 135 44 225 100 327
202 105 105 159 196 201 338 24 81 27 108 27 222 -1 110 -5 144 -27 219 -76
254 -277 460 -521 534 -146 44 -325 47 -453 7 l-54 -16 -204 205 c-1019 1024
-2317 1668 -3739 1855 -528 70 -1134 70 -1674 1 -1129 -145 -2225 -604 -3131
-1314 -393 -308 -798 -713 -1106 -1106 -864 -1104 -1356 -2495 -1365 -3857 -5
-796 107 -1501 351 -2206 l100 -289 -55 -61 c-76 -83 -137 -193 -171 -307 -25
-85 -28 -110 -27 -230 0 -118 4 -145 28 -220 122 -383 478 -611 863 -554 57 9
108 12 112 7 3 -4 58 -75 120 -158 292 -386 677 -782 1070 -1101 885 -719
1965 -1193 3100 -1363 352 -52 534 -65 945 -65 390 -1 522 7 850 50 1208 157
2339 654 3281 1440 305 254 715 674 904 924 235 310 528 583 735 684 100 48
170 58 267 40 106 -19 213 -57 308 -108 108 -59 242 -195 297 -301 69 -135 87
-208 87 -370 2 -273 -32 -338 -420 -827 -664 -834 -1437 -1509 -2304 -2008
-1047 -603 -2142 -945 -3370 -1051 -194 -16 -323 -21 -620 -21 -388 0 -610 12
-955 52 -187 22 -546 79 -558 90 -4 3 -14 42 -21 86 -51 282 -273 528 -551
609 -286 83 -591 3 -795 -209 -35 -36 -67 -66 -72 -66 -24 0 -327 133 -543
239 -951 464 -1763 1082 -2481 1886 -1323 1484 -2059 3457 -2021 5420 13 654
93 1257 243 1845 411 1601 1288 3009 2550 4091 l175 150 35 -22 c310 -191 720
-142 979 116 90 91 155 197 196 325 28 86 31 108 32 225 1 72 -2 140 -7 152
-7 21 9 30 232 142 883 442 1810 706 2832 807 251 25 313 27 710 27 494 1 717
-15 1155 -79 2044 -302 3914 -1394 5170 -3019 261 -338 312 -397 440 -504 260
-219 497 -316 804 -328 388 -17 739 126 1008 411 262 276 375 620 334 1011
-25 234 -129 475 -284 660 -46 55 -173 215 -282 355 -887 1138 -2027 2103
-3300 2793 -1453 787 -3054 1222 -4705 1277 -316 11 -395 11 -730 0z"/>
</g>
</svg>
